<svg width="47" height="28" viewBox="0 0 47 28" fill="none" xmlns="http://www.w3.org/2000/svg">
<path d="M42.7273 0H4.27273C1.92273 0 0 2.1 0 4.66667V23.3333C0 25.9 1.92273 28 4.27273 28H42.7273C45.0773 28 47 25.9 47 23.3333V4.66667C47 2.1 45.0773 0 42.7273 0ZM21.3636 16.3333H14.9545V23.3333H10.6818V16.3333H4.27273V11.6667H10.6818V4.66667H14.9545V11.6667H21.3636V16.3333ZM30.9773 21C29.2041 21 27.7727 19.4367 27.7727 17.5C27.7727 15.5633 29.2041 14 30.9773 14C32.7505 14 34.1818 15.5633 34.1818 17.5C34.1818 19.4367 32.7505 21 30.9773 21ZM39.5227 14C37.7495 14 36.3182 12.4367 36.3182 10.5C36.3182 8.56333 37.7495 7 39.5227 7C41.2959 7 42.7273 8.56333 42.7273 10.5C42.7273 12.4367 41.2959 14 39.5227 14Z" fill="#14171e"/>
</svg>
